<svg width="70" height="81" viewBox="0 0 70 81" fill="none" xmlns="http://www.w3.org/2000/svg">
<path d="M56.5921 9.77906C56.9237 11.2154 56.8837 12.7126 56.4757 14.1296C56.0678 15.5465 55.3054 16.8364 54.2604 17.8778V17.8778C54.2604 17.8778 54.2372 17.8831 54.2317 17.9014C53.8415 18.2031 53.4512 18.5146 53.0869 18.8542C53.0869 18.8542 53.0614 18.8601 53.0581 18.8779L53.0419 18.8816C52.1406 19.4927 51.1336 19.931 50.0721 20.1744C47.8572 20.6052 45.5618 20.1591 43.6708 18.9303C41.7799 17.7015 40.4413 15.7862 39.938 13.5891C39.4347 11.392 39.8061 9.085 40.9736 7.15558C42.1412 5.22616 44.0135 3.82537 46.1951 3.24913C46.3157 3.22148 46.4271 3.19596 46.5502 3.16779C48.7563 2.75574 51.0361 3.21275 52.9117 4.44304C54.7873 5.67332 56.1132 7.58138 56.6114 9.76732L56.5921 9.77906Z" fill="#89D6FB"/>
<path d="M44.3985 40.6932L29.4352 73.9668C28.5051 75.9597 26.8262 77.5063 24.7626 78.2708C22.699 79.0354 20.4173 78.9563 18.4125 78.0507C16.4076 77.1452 14.8414 75.4862 14.0537 73.4337C13.2659 71.3812 13.3201 69.1008 14.2045 67.0873L29.5317 33.013L44.3985 40.6932Z" fill="url(#paint0_linear_909_5193)"/>
<path d="M51.2583 25.4369L44.3983 40.6929L29.5314 33.0127L13.1766 24.5312C11.2094 23.5131 9.72797 21.7557 9.05819 19.6457C8.38842 17.5358 8.58516 15.246 9.60514 13.2802C10.6251 11.3144 12.3848 9.83351 14.497 9.16341C16.6093 8.49331 18.9011 8.68884 20.8683 9.70699L36.4099 17.7524L51.2583 25.4369Z" fill="url(#paint1_linear_909_5193)"/>
<defs>
<linearGradient id="paint0_linear_909_5193" x1="19.6855" y1="73.5476" x2="38.2459" y2="35.4597" gradientUnits="userSpaceOnUse">
<stop stop-color="#02A9F7"/>
<stop offset="0.19" stop-color="#02A7F4"/>
<stop offset="0.36" stop-color="#02A0E9"/>
<stop offset="0.51" stop-color="#0294D7"/>
<stop offset="0.66" stop-color="#0284BE"/>
<stop offset="0.81" stop-color="#026F9E"/>
<stop offset="0.94" stop-color="#02577A"/>
</linearGradient>
<linearGradient id="paint1_linear_909_5193" x1="43.4277" y1="30.5591" x2="3.80132" y2="10.8284" gradientUnits="userSpaceOnUse">
<stop offset="0.1" stop-color="#02A9F7"/>
<stop offset="0.2" stop-color="#02A4F0"/>
<stop offset="0.35" stop-color="#0298DD"/>
<stop offset="0.53" stop-color="#0283BD"/>
<stop offset="0.72" stop-color="#026691"/>
<stop offset="0.82" stop-color="#02577A"/>
</linearGradient>
</defs>
</svg>
